<svg width="14" height="14" viewBox="0 0 14 14" fill="none" xmlns="http://www.w3.org/2000/svg">
<path d="M2.96118 6.48545C2.96118 4.76151 2.96118 3.89955 3.53577 3.36399C4.11035 2.82843 5.03513 2.82843 6.88469 2.82843H8.84645C10.696 2.82843 11.6208 2.82843 12.1954 3.36399C12.77 3.89955 12.77 4.76151 12.77 6.48545V9.53297C12.77 11.2569 12.77 12.1188 12.1954 12.6544C11.6208 13.19 10.696 13.19 8.84645 13.19H6.88469C5.03513 13.19 4.11035 13.19 3.53577 12.6544C2.96118 12.1188 2.96118 11.2569 2.96118 9.53297V6.48545Z" stroke="white" stroke-width="0.95"/>
<path d="M2.96176 11.3616C1.87831 11.3616 1 10.5429 1 9.53305V5.87603C1 3.57744 1 2.42816 1.76611 1.71408C2.53223 1 3.76526 1 6.23135 1H8.84702C9.9305 1 10.8088 1.81865 10.8088 2.82851" stroke="white" stroke-width="0.95"/>
</svg>
