<!DOCTYPE svg PUBLIC "-//W3C//DTD SVG 1.1//EN" "http://www.w3.org/Graphics/SVG/1.1/DTD/svg11.dtd">
<!-- Uploaded to: SVG Repo, www.svgrepo.com, Transformed by: SVG Repo Mixer Tools -->
<svg height="256px" width="256px" version="1.1" id="Layer_1" xmlns="http://www.w3.org/2000/svg" xmlns:xlink="http://www.w3.org/1999/xlink" viewBox="0 0 512.00 512.00" xml:space="preserve" fill="#000000">
<g id="SVGRepo_bgCarrier" stroke-width="0"/>
<g id="SVGRepo_tracerCarrier" stroke-linecap="round" stroke-linejoin="round"/>
<g id="SVGRepo_iconCarrier"> <path style="fill:#fd7295;" d="M495.432,119.182H384.267v8.551c0,9.445-7.658,17.102-17.102,17.102 c-9.445,0-17.102-7.658-17.102-17.102v-8.551H16.568c-4.722,0-8.551,3.829-8.551,8.551v256.534c0,4.722,3.829,8.551,8.551,8.551 h333.495v-8.551c0-9.445,7.658-17.102,17.102-17.102c9.445,0,17.102,7.658,17.102,17.102v8.551h111.165 c4.722,0,8.551-3.829,8.551-8.551V127.733C503.983,123.01,500.155,119.182,495.432,119.182z"/> <path style="fill:#dd557e;" d="M367.165,367.165c9.445,0,17.102,7.658,17.102,17.102v8.551h111.165c4.722,0,8.551-3.829,8.551-8.551 V127.733c0-4.722-3.829-8.551-8.551-8.551H384.267v8.551c0,9.445-7.658,17.102-17.102,17.102V367.165z"/> <path d="M495.432,111.165H384.267c-4.427,0-8.017,3.589-8.017,8.017v8.551c0,5.01-4.076,9.086-9.086,9.086s-9.086-4.076-9.086-9.086 v-8.551c0-4.427-3.589-8.017-8.017-8.017H16.568C7.432,111.165,0,118.597,0,127.733v256.534c0,9.136,7.432,16.568,16.568,16.568 h333.495c4.427,0,8.017-3.589,8.017-8.017v-8.551c0-5.01,4.076-9.086,9.086-9.086s9.086,4.076,9.086,9.086v8.551 c0,4.427,3.589,8.017,8.017,8.017h111.165c9.136,0,16.568-7.432,16.568-16.568V127.733C512,118.597,504.568,111.165,495.432,111.165 z M495.432,384.802H392.284v-0.534c0-11.048-7.172-20.446-17.102-23.8v-18.956c0-4.427-3.589-8.017-8.017-8.017 c-4.427,0-8.017,3.589-8.017,8.017v18.956c-9.93,3.354-17.102,12.752-17.102,23.8v0.534H195.608V332.96 c0-4.427-3.589-8.017-8.017-8.017s-8.017,3.589-8.017,8.017v51.841H16.568c-0.295,0-0.534-0.239-0.534-0.534V264.017h94.597 c4.427,0,8.017-3.589,8.017-8.017c0-4.427-3.589-8.017-8.017-8.017H16.033V127.733c0-0.295,0.239-0.534,0.534-0.534h163.006v51.841 c0,4.427,3.589,8.017,8.017,8.017s8.017-3.589,8.017-8.017v-51.841h146.438v0.534c0,11.048,7.172,20.446,17.102,23.8v18.956 c0,4.427,3.589,8.017,8.017,8.017c4.427,0,8.017-3.589,8.017-8.017v-18.956c9.93-3.354,17.102-12.752,17.102-23.8v-0.534h103.148 c0.295,0,0.534,0.239,0.534,0.534v120.251H264.551c-4.427,0-8.017,3.589-8.017,8.017c0,4.427,3.589,8.017,8.017,8.017h231.415 v120.251C495.967,384.562,495.727,384.802,495.432,384.802z"/> <path d="M367.165,229.812c4.427,0,8.017-3.589,8.017-8.017v-17.102c0-4.427-3.589-8.017-8.017-8.017 c-4.427,0-8.017,3.589-8.017,8.017v17.102C359.148,226.223,362.738,229.812,367.165,229.812z"/> <path d="M367.165,282.188c-4.427,0-8.017,3.589-8.017,8.017v17.102c0,4.427,3.589,8.017,8.017,8.017 c4.427,0,8.017-3.589,8.017-8.017v-17.102C375.182,285.777,371.592,282.188,367.165,282.188z"/> <path d="M217.074,256c18.337-6.001,41.034-15.205,52.589-26.761c7.387-7.387,11.455-17.209,11.455-27.657 c0-10.446-4.068-20.268-11.455-27.657s-17.208-11.454-27.655-11.454c-10.447,0-20.269,4.068-27.657,11.455 c-11.555,11.555-20.759,34.253-26.761,52.588c-6.002-18.337-15.205-41.034-26.761-52.588c-7.387-7.387-17.209-11.455-27.657-11.455 c-10.446,0-20.268,4.068-27.657,11.455c-7.388,7.387-11.453,17.209-11.453,27.657s4.068,20.269,11.455,27.657 c11.555,11.555,34.253,20.759,52.588,26.761c-18.337,6.001-41.034,15.205-52.589,26.761c-7.387,7.385-11.455,17.207-11.455,27.654 c0,10.446,4.068,20.268,11.455,27.657c7.387,7.388,17.209,11.455,27.657,11.455s20.269-4.068,27.657-11.455 c11.555-11.555,20.759-34.253,26.761-52.589c6.002,18.337,15.205,41.034,26.761,52.589c7.387,7.387,17.209,11.455,27.657,11.455 c10.446,0,20.268-4.068,27.657-11.455s11.453-17.209,11.453-27.657c0-10.447-4.068-20.269-11.455-27.657 C258.109,271.205,235.411,262.001,217.074,256z M225.688,185.265c4.359-4.359,10.154-6.76,16.319-6.76s11.96,2.401,16.319,6.76 c4.359,4.359,6.76,10.154,6.76,16.319s-2.401,11.96-6.76,16.319c-11.471,11.471-40.353,21.483-59.566,26.924 C204.197,225.622,214.202,196.751,225.688,185.265z M110.096,201.584c0-6.164,2.401-11.96,6.76-16.319 c4.359-4.359,10.154-6.76,16.319-6.76s11.96,2.401,16.319,6.76c11.471,11.471,21.483,40.353,26.924,59.566 c-19.206-5.436-48.076-15.441-59.563-26.928C112.497,213.544,110.096,207.748,110.096,201.584z M149.493,326.735 c-4.359,4.359-10.154,6.76-16.319,6.76c-6.164,0-11.96-2.401-16.319-6.76c-4.359-4.359-6.76-10.155-6.76-16.319 s2.401-11.96,6.76-16.319c11.471-11.471,40.353-21.483,59.566-26.924C170.984,286.378,160.98,315.249,149.493,326.735z M258.326,326.735c-4.359,4.359-10.155,6.76-16.319,6.76s-11.96-2.401-16.319-6.76c-11.471-11.471-21.483-40.353-26.924-59.566 c19.206,5.436,48.076,15.441,59.563,26.928c4.359,4.359,6.76,10.154,6.76,16.319S262.685,322.376,258.326,326.735z"/> </g>
</svg>