<svg width="21" height="20" viewBox="0 0 21 20" fill="none" xmlns="http://www.w3.org/2000/svg">
<path d="M14.4723 5.04492H12.3883V3.82813C12.3883 3.60352 12.2067 3.42188 11.9821 3.42188H8.33557C8.11096 3.42188 7.92932 3.60352 7.92932 3.82813V5.04492H5.81213C5.40588 5.04492 5.07581 5.36719 5.07581 5.76367V6.75781C5.07581 7.11133 5.33948 7.4043 5.68323 7.46484V16.2109C5.68323 16.9844 6.31409 17.6133 7.09143 17.6133H13.193C13.9703 17.6133 14.6012 16.9844 14.6012 16.2109V7.46484C14.9469 7.4043 15.2086 7.11133 15.2086 6.75781V5.76367C15.2106 5.36914 14.8785 5.04492 14.4723 5.04492ZM8.73987 4.23438H11.5778V5.04492H8.73987V4.23438ZM5.8844 5.85742H10.1412H14.3981V6.66797H5.8844V5.85742ZM13.7907 16.2129C13.7907 16.5391 13.5231 16.8047 13.193 16.8047H7.09143C6.76135 16.8047 6.49377 16.5391 6.49377 16.2129V7.47852H13.7907V16.2129Z" fill="black"/>
<path d="M10.1422 15.6035C10.3668 15.6035 10.5485 15.4219 10.5485 15.1973V9.11719C10.5485 8.89258 10.3668 8.71094 10.1422 8.71094C9.9176 8.71094 9.73596 8.89258 9.73596 9.11719V15.1992C9.73596 15.4219 9.9176 15.6035 10.1422 15.6035ZM8.11487 15.6035C8.33948 15.6035 8.52112 15.4219 8.52112 15.1973V9.11719C8.52112 8.89258 8.33948 8.71094 8.11487 8.71094C7.89026 8.71094 7.70862 8.89258 7.70862 9.11719V15.1992C7.71057 15.4219 7.89221 15.6035 8.11487 15.6035ZM12.1696 15.6172C12.3942 15.6172 12.5758 15.4355 12.5758 15.2109V9.12891C12.5758 8.9043 12.3942 8.72266 12.1696 8.72266C11.9449 8.72266 11.7633 8.9043 11.7633 9.12891V15.2109C11.7633 15.4355 11.9449 15.6172 12.1696 15.6172Z" fill="#211F1E"/>
</svg>
