<svg width="20" height="20" viewBox="0 0 20 20" fill="none" xmlns="http://www.w3.org/2000/svg">
<path d="M13.043 7.07227H5.9375V16.2109C5.9375 16.7617 6.38672 17.207 6.93945 17.207H13.041C13.5957 17.207 14.0449 16.7617 14.0449 16.2109V7.07422H13.043V7.07227Z" fill="#CCCCCC"/>
<path d="M14.6543 5.76563C14.6543 5.5918 14.5059 5.45117 14.3223 5.45117H5.66211C5.47852 5.45117 5.33008 5.5918 5.33008 5.76563V6.75977C5.33008 6.93359 5.47852 7.07422 5.66211 7.07422H14.3223C14.5059 7.07422 14.6543 6.93359 14.6543 6.75977V5.76563Z" fill="#CCCCCC"/>
<path d="M14.3223 5.04492H12.2383V3.82813C12.2383 3.60352 12.0566 3.42188 11.832 3.42188H8.18555C7.96094 3.42188 7.7793 3.60352 7.7793 3.82813V5.04492H5.66211C5.25586 5.04492 4.92578 5.36719 4.92578 5.76367V6.75781C4.92578 7.11133 5.18945 7.4043 5.5332 7.46484V16.2109C5.5332 16.9844 6.16406 17.6133 6.94141 17.6133H13.043C13.8203 17.6133 14.4512 16.9844 14.4512 16.2109V7.46484C14.7969 7.4043 15.0586 7.11133 15.0586 6.75781V5.76367C15.0605 5.36914 14.7285 5.04492 14.3223 5.04492ZM8.58984 4.23438H11.4277V5.04492H8.58984V4.23438ZM5.73438 5.85742H14.248V6.66797H5.73438V5.85742ZM13.6406 16.2129C13.6406 16.5391 13.373 16.8047 13.043 16.8047H6.94141C6.61133 16.8047 6.34375 16.5391 6.34375 16.2129V7.47852H13.6406V16.2129Z" fill="#211F1E"/>
<path d="M9.99219 15.6035C10.2168 15.6035 10.3984 15.4219 10.3984 15.1973V9.11719C10.3984 8.89258 10.2168 8.71094 9.99219 8.71094C9.76758 8.71094 9.58594 8.89258 9.58594 9.11719V15.1992C9.58594 15.4219 9.76758 15.6035 9.99219 15.6035ZM7.96484 15.6035C8.18945 15.6035 8.37109 15.4219 8.37109 15.1973V9.11719C8.37109 8.89258 8.18945 8.71094 7.96484 8.71094C7.74023 8.71094 7.55859 8.89258 7.55859 9.11719V15.1992C7.56055 15.4219 7.74219 15.6035 7.96484 15.6035ZM12.0195 15.6172C12.2441 15.6172 12.4258 15.4355 12.4258 15.2109V9.12891C12.4258 8.9043 12.2441 8.72266 12.0195 8.72266C11.7949 8.72266 11.6133 8.9043 11.6133 9.12891V15.2109C11.6133 15.4355 11.7949 15.6172 12.0195 15.6172Z" fill="#211F1E"/>
</svg>
