<svg width="18" height="20" viewBox="0 0 18 20" fill="none" xmlns="http://www.w3.org/2000/svg">
<path fill-rule="evenodd" clip-rule="evenodd" d="M9.00012 2.32015C7.32524 2.32015 5.96749 3.6779 5.96749 5.35276C5.96749 7.02762 7.32524 8.38537 9.00012 8.38537C10.675 8.38537 12.0327 7.02762 12.0327 5.35276C12.0327 3.6779 10.675 2.32015 9.00012 2.32015ZM4.48108 5.35276C4.48108 2.85697 6.50432 0.83374 9.00012 0.83374C11.4959 0.83374 13.5192 2.85697 13.5192 5.35276C13.5192 7.84855 11.4959 9.87178 9.00012 9.87178C6.50432 9.87178 4.48108 7.84855 4.48108 5.35276Z" fill="#6D758F"/>
<path fill-rule="evenodd" clip-rule="evenodd" d="M3.33102 12.9312C4.68918 12.1205 6.52673 11.5804 9.0001 11.5804C11.4735 11.5804 13.311 12.1205 14.6692 12.9312C16.0279 13.7422 16.8635 14.7983 17.3725 15.7621L17.3725 15.7622C17.8281 16.6248 17.679 17.5197 17.162 18.169C16.6647 18.7935 15.8552 19.1662 14.9863 19.1662H3.01395C2.145 19.1662 1.33552 18.7935 0.838208 18.169C0.321171 17.5197 0.172146 16.6247 0.62772 15.7621C1.13674 14.7983 1.97227 13.7422 3.33102 12.9312ZM4.09287 14.2075C3.00339 14.8578 2.34441 15.6945 1.94208 16.4563L1.94208 16.4563C1.77811 16.7668 1.83027 17.0287 2.00098 17.2431C2.19141 17.4822 2.55623 17.6798 3.01395 17.6798H14.9863C15.444 17.6798 15.8088 17.4822 15.9992 17.2431C16.1699 17.0287 16.2221 16.7668 16.0582 16.4563C15.6558 15.6945 14.9968 14.8578 13.9073 14.2075C12.8173 13.5568 11.2529 13.0669 9.0001 13.0669C6.74731 13.0669 5.18293 13.5568 4.09287 14.2075Z" fill="#6D758F"/>
</svg>
