<svg width="28" height="28" viewBox="0 0 28 28" fill="none" xmlns="http://www.w3.org/2000/svg">
<rect width="28" height="28" rx="4" fill="#B4B9C9"/>
<path fill-rule="evenodd" clip-rule="evenodd" d="M7 14C7 11.2038 7 9.80567 7.66632 8.79865C7.96386 8.34897 8.34897 7.96386 8.79865 7.66632C9.80567 7 11.2038 7 14 7C16.7962 7 18.1943 7 19.2013 7.66632C19.651 7.96386 20.0361 8.34897 20.3337 8.79865C21 9.80567 21 11.2038 21 14C21 16.7962 21 18.1943 20.3337 19.2013C20.0361 19.651 19.651 20.0361 19.2013 20.3337C18.1943 21 16.7962 21 14 21C11.2038 21 9.80567 21 8.79865 20.3337C8.34897 20.0361 7.96386 19.651 7.66632 19.2013C7 18.1943 7 16.7962 7 14ZM17.6239 14.0002C17.6239 16.0016 16.0013 17.6242 13.9999 17.6242C11.9984 17.6242 10.3759 16.0016 10.3759 14.0002C10.3759 11.9987 11.9984 10.3762 13.9999 10.3762C16.0013 10.3762 17.6239 11.9987 17.6239 14.0002ZM13.9999 16.3981C15.3242 16.3981 16.3978 15.3245 16.3978 14.0002C16.3978 12.6759 15.3242 11.6023 13.9999 11.6023C12.6756 11.6023 11.602 12.6759 11.602 14.0002C11.602 15.3245 12.6756 16.3981 13.9999 16.3981ZM17.767 11.0456C18.2373 11.0456 18.6185 10.6644 18.6185 10.1941C18.6185 9.72383 18.2373 9.34259 17.767 9.34259C17.2967 9.34259 16.9155 9.72383 16.9155 10.1941C16.9155 10.6644 17.2967 11.0456 17.767 11.0456Z" fill="white"/>
</svg>
