<svg width="28" height="28" viewBox="0 0 28 28" fill="none" xmlns="http://www.w3.org/2000/svg">
<rect width="28" height="28" rx="4" fill="#B4B9C9"/>
<path d="M7 8.88213C7 8.43319 7.15766 8.06282 7.47297 7.77102C7.78828 7.47921 8.1982 7.33331 8.7027 7.33331C9.1982 7.33331 9.59909 7.47696 9.90541 7.76429C10.2207 8.06059 10.3784 8.44666 10.3784 8.92254C10.3784 9.35351 10.2252 9.71265 9.91892 9.99998C9.60361 10.2963 9.18919 10.4444 8.67568 10.4444H8.66216C8.16666 10.4444 7.76577 10.2963 7.45946 9.99998C7.15315 9.70368 7 9.33106 7 8.88213ZM7.17568 20.6666V11.67H10.1757V20.6666H7.17568ZM11.8378 20.6666H14.8378V15.6431C14.8378 15.3288 14.8739 15.0864 14.9459 14.9158C15.0721 14.6105 15.2635 14.3524 15.5203 14.1414C15.777 13.9304 16.0991 13.8249 16.4865 13.8249C17.4955 13.8249 18 14.5028 18 15.8586V20.6666H21V15.5084C21 14.1795 20.6847 13.1717 20.0541 12.4848C19.4234 11.798 18.5901 11.4545 17.5541 11.4545C16.3919 11.4545 15.4865 11.9528 14.8378 12.9495V12.9764H14.8243L14.8378 12.9495V11.67H11.8378C11.8559 11.9573 11.8649 12.8507 11.8649 14.3501C11.8649 15.8496 11.8559 17.9551 11.8378 20.6666Z" fill="white"/>
</svg>
