<svg width="20" height="14" viewBox="0 0 20 14" fill="none" xmlns="http://www.w3.org/2000/svg">
<path d="M1.5868 8.77881C3.36623 10.5478 6.46953 12.9999 10.0002 12.9999C13.5308 12.9999 16.6335 10.5478 18.413 8.77881C18.8823 8.31226 19.1177 8.07819 19.2671 7.62012C19.3738 7.29328 19.3738 6.70674 19.2671 6.3799C19.1177 5.92181 18.8823 5.6877 18.413 5.22111C16.6335 3.45208 13.5308 1 10.0002 1C6.46953 1 3.36623 3.45208 1.5868 5.22111C1.11714 5.68802 0.882286 5.92165 0.732796 6.3799C0.626177 6.70673 0.626177 7.29328 0.732796 7.62012C0.882286 8.07837 1.11714 8.31189 1.5868 8.77881Z" stroke="black" stroke-linecap="round" stroke-linejoin="round"/>
<path d="M8 7C8 8.10457 8.89543 9 10 9C11.1046 9 12 8.10457 12 7C12 5.89543 11.1046 5 10 5C8.89543 5 8 5.89543 8 7Z" stroke="black" stroke-linecap="round" stroke-linejoin="round"/>
</svg>
