<svg width="18" height="19" viewBox="0 0 18 19" fill="none" xmlns="http://www.w3.org/2000/svg">
<path d="M6.96097 3.84032C8.0165 1.94678 8.54425 1 9.33333 1C10.1224 1 10.6502 1.94677 11.7057 3.84031L11.9788 4.33019C12.2788 4.86828 12.4287 5.13733 12.6626 5.31484C12.8964 5.49236 13.1876 5.55825 13.7701 5.69004L14.3004 5.81003C16.3501 6.2738 17.375 6.50568 17.6188 7.28978C17.8627 8.07383 17.164 8.89092 15.7666 10.5249L15.4051 10.9477C15.008 11.412 14.8094 11.6442 14.7201 11.9314C14.6308 12.2187 14.6608 12.5284 14.7208 13.148L14.7755 13.712C14.9868 15.8922 15.0924 16.9823 14.4541 17.4668C13.8157 17.9514 12.8561 17.5096 10.9369 16.626L10.4404 16.3973C9.89508 16.1463 9.62242 16.0207 9.33333 16.0207C9.04425 16.0207 8.77158 16.1463 8.22625 16.3973L7.72975 16.626C5.81057 17.5096 4.85099 17.9514 4.21263 17.4668C3.57427 16.9823 3.6799 15.8922 3.89117 13.712L3.94582 13.148C4.00586 12.5284 4.03588 12.2187 3.94655 11.9314C3.85723 11.6442 3.65869 11.412 3.2616 10.9477L2.90008 10.5249C1.50271 8.89092 0.804018 8.07383 1.04785 7.28978C1.29168 6.50568 2.31655 6.2738 4.36628 5.81003L4.89658 5.69004C5.47904 5.55825 5.77028 5.49236 6.00412 5.31484C6.23796 5.13733 6.38794 4.86828 6.68789 4.33019L6.96097 3.84032Z" stroke="black"/>
</svg>
