<svg width="28" height="28" viewBox="0 0 28 28" fill="none" xmlns="http://www.w3.org/2000/svg">
<rect width="28" height="28" rx="4" fill="#B4B9C9"/>
<path d="M16.3544 8.32326V8.32074H17.0108L17.2507 8.36864C17.4106 8.39974 17.5558 8.4405 17.6862 8.49093C17.8167 8.54135 17.9429 8.60019 18.0649 8.66742C18.187 8.73465 18.2976 8.80315 18.3969 8.87291C18.4954 8.94183 18.5838 9.01494 18.6621 9.09226C18.7395 9.17042 18.8602 9.19059 19.0243 9.15277C19.1885 9.11495 19.3652 9.06242 19.5546 8.99519C19.7439 8.92796 19.9312 8.85232 20.1163 8.76827C20.3015 8.68422 20.4143 8.63086 20.4547 8.60817C20.4942 8.58465 20.5153 8.57204 20.5178 8.57035L20.5203 8.56657L20.5329 8.56026L20.5455 8.55396L20.5582 8.54766L20.5708 8.54135L20.5733 8.53757L20.5771 8.53505L20.5809 8.53253L20.5834 8.52875L20.596 8.52497L20.6087 8.52244L20.6061 8.54135L20.6023 8.56026L20.596 8.57917L20.5897 8.59808L20.5834 8.61069L20.5771 8.6233L20.5708 8.64221C20.5666 8.65481 20.5624 8.67162 20.5582 8.69263C20.554 8.71365 20.514 8.79768 20.4382 8.94476C20.3625 9.09184 20.2678 9.24102 20.1542 9.3923C20.0406 9.54357 19.9388 9.65787 19.8487 9.73519C19.7578 9.81335 19.6976 9.86798 19.6682 9.89908C19.6387 9.93101 19.603 9.96042 19.5609 9.98732L19.4977 10.0289L19.4851 10.0352L19.4725 10.0415L19.47 10.0453L19.4662 10.0478L19.4624 10.0504L19.4599 10.0541L19.4472 10.0604L19.4346 10.0667L19.4321 10.0705L19.4283 10.073L19.4245 10.0756L19.422 10.0794L19.4195 10.0831L19.4157 10.0857L19.4119 10.0882L19.4094 10.092H19.4725L19.826 10.0163C20.0616 9.96589 20.2867 9.90497 20.5014 9.83352L20.8422 9.72007L20.8801 9.70746L20.899 9.70116L20.9116 9.69485L20.9243 9.68855L20.9369 9.68225L20.9495 9.67594L20.9748 9.67216L21 9.66964V9.69485L20.9937 9.69737L20.9874 9.70116L20.9849 9.70494L20.9811 9.70746L20.9773 9.70998L20.9748 9.71376L20.9722 9.71754L20.9684 9.72007L20.9647 9.72259L20.9621 9.72637L20.9596 9.73015L20.9558 9.73267L20.9495 9.74528L20.9432 9.75789L20.9394 9.76041C20.9377 9.76293 20.8843 9.83436 20.7791 9.97472C20.6739 10.1159 20.6171 10.1873 20.6087 10.189C20.6002 10.1916 20.5885 10.2042 20.5733 10.2268C20.559 10.2504 20.4698 10.3441 20.3057 10.508C20.1416 10.6719 19.9808 10.8177 19.8235 10.9454C19.6652 11.074 19.5853 11.232 19.5836 11.4194C19.5811 11.606 19.5714 11.817 19.5546 12.0523C19.5377 12.2876 19.5062 12.5418 19.4599 12.815C19.4136 13.0881 19.3421 13.397 19.2453 13.7416C19.1485 14.0861 19.0307 14.4223 18.8918 14.7501C18.7529 15.0778 18.6078 15.372 18.4563 15.6325C18.3048 15.8931 18.1659 16.1137 18.0397 16.2944C17.9134 16.4751 17.7851 16.6453 17.6546 16.8049C17.5242 16.9646 17.3593 17.1445 17.1598 17.3445C16.9595 17.5437 16.8501 17.6529 16.8316 17.6723C16.8122 17.6908 16.7297 17.7597 16.5841 17.879C16.4394 17.9992 16.2837 18.1194 16.117 18.2396C15.9513 18.3589 15.7989 18.4585 15.6601 18.5383C15.5212 18.6182 15.3537 18.7094 15.1576 18.8119C14.9624 18.9153 14.7511 19.0111 14.5239 19.0993C14.2967 19.1876 14.0568 19.2695 13.8043 19.3452C13.5518 19.4208 13.3078 19.4796 13.0721 19.5217C12.8365 19.5637 12.5693 19.5994 12.2705 19.6288L11.8224 19.6729V19.6792H11.0018V19.6729L10.8945 19.6666C10.823 19.6624 10.7641 19.6582 10.7178 19.654C10.6715 19.6498 10.4968 19.6267 10.1939 19.5847C9.89089 19.5427 9.65315 19.5006 9.48061 19.4586C9.30809 19.4166 9.0514 19.3368 8.71055 19.2191C8.3697 19.1014 8.07809 18.9825 7.83571 18.8623C7.59417 18.743 7.44269 18.6673 7.38124 18.6354C7.32065 18.6043 7.25248 18.5657 7.17674 18.5194L7.06312 18.4501L7.06061 18.4463L7.05681 18.4438L7.05302 18.4413L7.0505 18.4375L7.03787 18.4312L7.02525 18.4249L7.02274 18.4211L7.01894 18.4186L7.01515 18.4161L7.01262 18.4123L7.01011 18.4085L7.00631 18.406H7V18.3808L7.01262 18.3833L7.02525 18.3871L7.08206 18.3934C7.11993 18.3976 7.22303 18.4039 7.39134 18.4123C7.55967 18.4207 7.7385 18.4207 7.92786 18.4123C8.11722 18.4039 8.3108 18.385 8.50857 18.3555C8.70635 18.3261 8.93989 18.2757 9.2092 18.2043C9.47852 18.1328 9.72595 18.0479 9.9515 17.9496C10.1762 17.8505 10.3361 17.7765 10.4312 17.7277C10.5255 17.6798 10.6694 17.5907 10.8629 17.4605L11.1533 17.2651L11.1558 17.2613L11.1596 17.2588L11.1634 17.2563L11.1659 17.2525L11.1684 17.2487L11.1722 17.2462L11.176 17.2436L11.1785 17.2399L11.1912 17.2361L11.2038 17.2336L11.2063 17.221L11.2101 17.2084L11.2139 17.2058L11.2164 17.202L11.1154 17.1957C11.0481 17.1915 10.9829 17.1873 10.9197 17.1831C10.8566 17.1789 10.7577 17.16 10.6231 17.1264C10.4884 17.0928 10.3433 17.0424 10.1876 16.9751C10.0319 16.9079 9.88038 16.828 9.73309 16.7356C9.58582 16.6432 9.47935 16.5662 9.41371 16.5049C9.34891 16.4444 9.26474 16.3587 9.16123 16.2477C9.05856 16.136 8.96934 16.0212 8.8936 15.9036C8.81785 15.7859 8.74548 15.6502 8.67648 15.4964L8.57169 15.2669L8.56537 15.248L8.55906 15.2291L8.55527 15.2165L8.55275 15.2039L8.57169 15.2064L8.59062 15.2102L8.72949 15.2291C8.82207 15.2417 8.96725 15.2459 9.16501 15.2417C9.36279 15.2375 9.49955 15.2291 9.57529 15.2165C9.65104 15.2039 9.69733 15.1955 9.71416 15.1913L9.7394 15.185L9.77096 15.1787L9.80252 15.1724L9.80505 15.1686L9.80884 15.1661L9.81264 15.1636L9.81515 15.1598L9.7899 15.1535L9.76465 15.1472L9.7394 15.1409L9.71416 15.1346L9.68891 15.1283C9.67208 15.1241 9.64263 15.1157 9.60054 15.1031C9.55847 15.0905 9.44485 15.0442 9.25969 14.9644C9.07455 14.8845 8.92727 14.8068 8.81785 14.7312C8.70817 14.6553 8.60359 14.5723 8.50478 14.4828C8.40631 14.392 8.29817 14.2752 8.18034 14.1324C8.06252 13.9895 7.95733 13.8235 7.86474 13.6344C7.77217 13.4453 7.70274 13.2646 7.65645 13.0923C7.61034 12.921 7.57992 12.7459 7.56557 12.5691L7.54283 12.3044L7.55546 12.3069L7.56808 12.3107L7.5807 12.317L7.59333 12.3233L7.60595 12.3296L7.61858 12.3359L7.81425 12.4242C7.9447 12.483 8.10671 12.5334 8.30027 12.5754C8.49385 12.6175 8.60956 12.6406 8.64743 12.6448L8.70424 12.6511H8.81785L8.81534 12.6473L8.81154 12.6448L8.80775 12.6423L8.80523 12.6385L8.80272 12.6347L8.79892 12.6322L8.79513 12.6297L8.79261 12.6259L8.77998 12.6196L8.76736 12.6133L8.76485 12.6095L8.76105 12.607L8.75726 12.6044L8.75473 12.6007L8.74211 12.5944L8.72949 12.5881L8.72697 12.5843C8.72445 12.5826 8.68826 12.5557 8.61839 12.5036C8.54938 12.4506 8.47701 12.3822 8.40126 12.2981C8.32552 12.2141 8.24977 12.1258 8.17403 12.0334C8.09815 11.9407 8.03056 11.8416 7.97205 11.7371C7.91314 11.6321 7.85086 11.4984 7.78521 11.3362C7.72041 11.1749 7.67118 11.0122 7.63751 10.8484C7.60386 10.6845 7.58492 10.5227 7.5807 10.363C7.5765 10.2033 7.5807 10.0667 7.59333 9.95329C7.60595 9.83983 7.6312 9.71166 7.66907 9.56879C7.70694 9.42592 7.76166 9.27464 7.83318 9.11495L7.94049 8.87543L7.9468 8.85652L7.95311 8.83761L7.95691 8.83509L7.95942 8.8313L7.96195 8.82752L7.96573 8.825L7.96953 8.82752L7.97205 8.8313L7.97457 8.83509L7.97836 8.83761L7.98216 8.84013L7.98467 8.84391L7.9872 8.84769L7.99098 8.85021L7.99729 8.86282L8.00361 8.87543L8.00741 8.87795L8.00992 8.88173L8.18034 9.07083C8.29396 9.19689 8.42862 9.33767 8.58431 9.49315C8.74001 9.64862 8.82627 9.72931 8.8431 9.73519C8.85994 9.74191 8.88097 9.76124 8.90622 9.79318C8.93147 9.82428 9.01563 9.89866 9.1587 10.0163C9.30178 10.134 9.48903 10.2706 9.72047 10.426C9.95192 10.5815 10.2086 10.7349 10.4905 10.8862C10.7725 11.0374 11.0755 11.174 11.3995 11.2959C11.7235 11.4178 11.9507 11.4976 12.0812 11.5354C12.2116 11.5732 12.4346 11.6215 12.7502 11.6804C13.0658 11.7392 13.3036 11.777 13.4635 11.7938C13.6234 11.8106 13.7328 11.8203 13.7917 11.8228L13.8801 11.8254L13.8776 11.8064L13.8738 11.7875L13.8485 11.63C13.8317 11.5249 13.8233 11.3778 13.8233 11.1887C13.8233 10.9996 13.838 10.8252 13.8674 10.6656C13.8969 10.5059 13.9411 10.3441 14 10.1802C14.0589 10.0163 14.1166 9.88478 14.1729 9.78562C14.2302 9.68729 14.3051 9.57509 14.3977 9.44903C14.4902 9.32296 14.6102 9.1927 14.7574 9.05822C14.9047 8.92375 15.073 8.80399 15.2624 8.69894C15.4518 8.59389 15.6264 8.51404 15.7863 8.45941C15.9462 8.40479 16.0809 8.36906 16.1903 8.35226C16.2997 8.33545 16.3544 8.32578 16.3544 8.32326Z" fill="white"/>
</svg>
